<mxfile host="app.diagrams.net" agent="Mozilla/5.0 (Windows NT 10.0; Win64; x64) AppleWebKit/537.36 (KHTML, like Gecko) Chrome/136.0.0.0 Safari/537.36" version="27.0.9">
  <diagram name="Page-1" id="JTrlybUsyTIDtIWEoiBK">
    <mxGraphModel dx="984" dy="541" grid="1" gridSize="10" guides="1" tooltips="1" connect="1" arrows="1" fold="1" page="1" pageScale="1" pageWidth="827" pageHeight="1169" math="0" shadow="0">
      <root>
        <mxCell id="0" />
        <mxCell id="1" parent="0" />
        <mxCell id="aTJoL-72fqJcMl2lLrdI-91" value="" style="rounded=0;whiteSpace=wrap;html=1;" vertex="1" parent="1">
          <mxGeometry x="440" y="400" width="140" height="130" as="geometry" />
        </mxCell>
        <mxCell id="aTJoL-72fqJcMl2lLrdI-1" value="" style="shape=stencil(5Zjfb5swEMf/lj0gbQ+psJ2fj02WdtOWJQrRulcrOGANbGScJe1fvwPsBAKZmlZdm4ZEAr53tuE+Pg7skFG8XfGIOdgNZaod8tnBmCbJlc9poGicXgmmQXLI2HGvwSv7k5GxwomgMStajb0Zwa27+XQ6aREMpgkXPGuKXe4XLrfo20LNyMNPydlQL6SHJrPDzu0Q8fZW0SScSJ9FoPjboosB7hd9+veF0Om1CyFQdhi0Fzz+YC4PuUZdc5+lFUctZaR5UhWXUgi21BWNKiU3VbeVjKqjJjRgNcFb0qiu3nFfh4Xax729/oXxILQjo+6gsMTUOps7SUPqy01JqofRBlNJqY+a9xEfsSgq4TLjOPjm9La721RM6JO7+9BqwUE+o2A/lAAbu6CdfBm4GPMPjdZHpmkeSX1v8Si5Fj7LWiOHDDch18xL6DKzbmA+ghbqODJmyJxoJCOp8rZk7GY/0FOt5G9Wsrj5BhZzOUxptj0aKPQvmLUsYTJmWmUBsj32TaRNhqC2Od/s5xvqGi0szbW2a0Rq5niw6/ux4MDHMHgc4hkXKey+sxU8ZVwPUvOJoEkd9I8aXMiYJDtUkNhUBJl8IuKbfHt9xJ0DxBZnCTFpIGxz8H8AriFq1xB9nZLuBUHqnwGkThOkweVAwu4ZQOo2QWpfECT89iBV6tk8v4ZnFbReA2Nb5d4jY2LfUs6ppPWbINVfKt8vpHMoaYMGSBAH9+Pi16fLQXUWhc1+pFcrW8ZqflGs3mx9uxaaCUGdp9U0hGp4dx0eYasVt2h9noHmUoAspMoCc8hzR+11ee5g2cdkQ+41f4C/PM/c58h6kGlfWnirLvuB1a78FQbTIF9BzJW/);whiteSpace=wrap;html=1;" vertex="1" parent="1">
          <mxGeometry x="20" y="20" width="120" height="120" as="geometry" />
        </mxCell>
        <mxCell id="aTJoL-72fqJcMl2lLrdI-10" value="" style="rounded=0;whiteSpace=wrap;html=1;" vertex="1" parent="1">
          <mxGeometry x="100" y="140" width="140" height="250" as="geometry" />
        </mxCell>
        <mxCell id="aTJoL-72fqJcMl2lLrdI-11" value="ESP32-WROOM-32" style="rounded=0;whiteSpace=wrap;html=1;" vertex="1" parent="1">
          <mxGeometry x="110" y="150" width="120" height="120" as="geometry" />
        </mxCell>
        <mxCell id="aTJoL-72fqJcMl2lLrdI-14" value="CCS811" style="rounded=0;whiteSpace=wrap;html=1;" vertex="1" parent="1">
          <mxGeometry x="414" y="210" width="160" height="70" as="geometry" />
        </mxCell>
        <mxCell id="aTJoL-72fqJcMl2lLrdI-15" value="" style="rounded=0;whiteSpace=wrap;html=1;" vertex="1" parent="1">
          <mxGeometry x="424" y="255" width="30" height="20" as="geometry" />
        </mxCell>
        <mxCell id="aTJoL-72fqJcMl2lLrdI-16" value="vcc" style="rounded=0;whiteSpace=wrap;html=1;fontSize=9;" vertex="1" parent="1">
          <mxGeometry x="414" y="280" width="20" height="20" as="geometry" />
        </mxCell>
        <mxCell id="aTJoL-72fqJcMl2lLrdI-17" value="gnd" style="rounded=0;whiteSpace=wrap;html=1;fontSize=9;" vertex="1" parent="1">
          <mxGeometry x="474" y="280" width="20" height="20" as="geometry" />
        </mxCell>
        <mxCell id="aTJoL-72fqJcMl2lLrdI-18" value="scl" style="rounded=0;whiteSpace=wrap;html=1;fontSize=9;" vertex="1" parent="1">
          <mxGeometry x="434" y="280" width="20" height="20" as="geometry" />
        </mxCell>
        <mxCell id="aTJoL-72fqJcMl2lLrdI-19" value="sda" style="rounded=0;whiteSpace=wrap;html=1;fontSize=9;" vertex="1" parent="1">
          <mxGeometry x="454" y="280" width="20" height="20" as="geometry" />
        </mxCell>
        <mxCell id="aTJoL-72fqJcMl2lLrdI-20" value="wak" style="rounded=0;whiteSpace=wrap;html=1;fontSize=9;" vertex="1" parent="1">
          <mxGeometry x="494" y="280" width="20" height="20" as="geometry" />
        </mxCell>
        <mxCell id="aTJoL-72fqJcMl2lLrdI-21" value="int" style="rounded=0;whiteSpace=wrap;html=1;fontSize=9;" vertex="1" parent="1">
          <mxGeometry x="514" y="280" width="20" height="20" as="geometry" />
        </mxCell>
        <mxCell id="aTJoL-72fqJcMl2lLrdI-22" value="rst" style="rounded=0;whiteSpace=wrap;html=1;fontSize=9;" vertex="1" parent="1">
          <mxGeometry x="534" y="280" width="20" height="20" as="geometry" />
        </mxCell>
        <mxCell id="aTJoL-72fqJcMl2lLrdI-23" value="add" style="rounded=0;whiteSpace=wrap;html=1;fontSize=9;" vertex="1" parent="1">
          <mxGeometry x="554" y="280" width="20" height="20" as="geometry" />
        </mxCell>
        <mxCell id="aTJoL-72fqJcMl2lLrdI-24" value="GC9A01" style="ellipse;whiteSpace=wrap;html=1;aspect=fixed;" vertex="1" parent="1">
          <mxGeometry x="450" y="405" width="120" height="120" as="geometry" />
        </mxCell>
        <mxCell id="aTJoL-72fqJcMl2lLrdI-26" value="rst" style="rounded=0;whiteSpace=wrap;html=1;fontSize=9;" vertex="1" parent="1">
          <mxGeometry x="440" y="530" width="20" height="20" as="geometry" />
        </mxCell>
        <mxCell id="aTJoL-72fqJcMl2lLrdI-27" value="cs" style="rounded=0;whiteSpace=wrap;html=1;fontSize=9;" vertex="1" parent="1">
          <mxGeometry x="460" y="530" width="20" height="20" as="geometry" />
        </mxCell>
        <mxCell id="aTJoL-72fqJcMl2lLrdI-28" value="dc" style="rounded=0;whiteSpace=wrap;html=1;fontSize=9;" vertex="1" parent="1">
          <mxGeometry x="480" y="530" width="20" height="20" as="geometry" />
        </mxCell>
        <mxCell id="aTJoL-72fqJcMl2lLrdI-29" value="sda" style="rounded=0;whiteSpace=wrap;html=1;fontSize=9;" vertex="1" parent="1">
          <mxGeometry x="500" y="530" width="20" height="20" as="geometry" />
        </mxCell>
        <mxCell id="aTJoL-72fqJcMl2lLrdI-30" value="scl" style="rounded=0;whiteSpace=wrap;html=1;fontSize=9;" vertex="1" parent="1">
          <mxGeometry x="520" y="530" width="20" height="20" as="geometry" />
        </mxCell>
        <mxCell id="aTJoL-72fqJcMl2lLrdI-31" value="gnd" style="rounded=0;whiteSpace=wrap;html=1;fontSize=9;" vertex="1" parent="1">
          <mxGeometry x="560" y="530" width="20" height="20" as="geometry" />
        </mxCell>
        <mxCell id="aTJoL-72fqJcMl2lLrdI-32" value="vcc" style="rounded=0;whiteSpace=wrap;html=1;fontSize=9;" vertex="1" parent="1">
          <mxGeometry x="540" y="530" width="20" height="20" as="geometry" />
        </mxCell>
        <mxCell id="aTJoL-72fqJcMl2lLrdI-33" value="RGB" style="rounded=0;whiteSpace=wrap;html=1;" vertex="1" parent="1">
          <mxGeometry x="90" y="430" width="50" height="80" as="geometry" />
        </mxCell>
        <mxCell id="aTJoL-72fqJcMl2lLrdI-36" value="gnd" style="rounded=0;whiteSpace=wrap;html=1;fontSize=9;" vertex="1" parent="1">
          <mxGeometry x="70" y="430" width="20" height="20" as="geometry" />
        </mxCell>
        <mxCell id="aTJoL-72fqJcMl2lLrdI-38" value="di" style="rounded=0;whiteSpace=wrap;html=1;fontSize=9;" vertex="1" parent="1">
          <mxGeometry x="70" y="450" width="20" height="20" as="geometry" />
        </mxCell>
        <mxCell id="aTJoL-72fqJcMl2lLrdI-40" value="vdc" style="rounded=0;whiteSpace=wrap;html=1;fontSize=9;" vertex="1" parent="1">
          <mxGeometry x="70" y="470" width="20" height="20" as="geometry" />
        </mxCell>
        <mxCell id="aTJoL-72fqJcMl2lLrdI-42" value="gnd" style="rounded=0;whiteSpace=wrap;html=1;fontSize=9;" vertex="1" parent="1">
          <mxGeometry x="70" y="490" width="20" height="20" as="geometry" />
        </mxCell>
        <mxCell id="aTJoL-72fqJcMl2lLrdI-44" value="gnd" style="rounded=0;whiteSpace=wrap;html=1;fontSize=9;" vertex="1" parent="1">
          <mxGeometry x="140" y="430" width="20" height="20" as="geometry" />
        </mxCell>
        <mxCell id="aTJoL-72fqJcMl2lLrdI-45" value="di" style="rounded=0;whiteSpace=wrap;html=1;fontSize=9;" vertex="1" parent="1">
          <mxGeometry x="140" y="450" width="20" height="20" as="geometry" />
        </mxCell>
        <mxCell id="aTJoL-72fqJcMl2lLrdI-46" value="vdc" style="rounded=0;whiteSpace=wrap;html=1;fontSize=9;" vertex="1" parent="1">
          <mxGeometry x="140" y="470" width="20" height="20" as="geometry" />
        </mxCell>
        <mxCell id="aTJoL-72fqJcMl2lLrdI-47" value="gnd" style="rounded=0;whiteSpace=wrap;html=1;fontSize=9;" vertex="1" parent="1">
          <mxGeometry x="140" y="490" width="20" height="20" as="geometry" />
        </mxCell>
        <mxCell id="aTJoL-72fqJcMl2lLrdI-60" style="edgeStyle=orthogonalEdgeStyle;rounded=0;orthogonalLoop=1;jettySize=auto;html=1;exitX=1;exitY=0.5;exitDx=0;exitDy=0;entryX=0.5;entryY=1;entryDx=0;entryDy=0;" edge="1" parent="1" source="aTJoL-72fqJcMl2lLrdI-48" target="aTJoL-72fqJcMl2lLrdI-31">
          <mxGeometry relative="1" as="geometry">
            <Array as="points">
              <mxPoint x="600" y="150" />
              <mxPoint x="600" y="570" />
              <mxPoint x="570" y="570" />
            </Array>
          </mxGeometry>
        </mxCell>
        <mxCell id="aTJoL-72fqJcMl2lLrdI-62" style="edgeStyle=orthogonalEdgeStyle;rounded=0;orthogonalLoop=1;jettySize=auto;html=1;exitX=1;exitY=0.5;exitDx=0;exitDy=0;entryX=0.5;entryY=1;entryDx=0;entryDy=0;" edge="1" parent="1" target="aTJoL-72fqJcMl2lLrdI-17">
          <mxGeometry relative="1" as="geometry">
            <mxPoint x="280" y="150" as="sourcePoint" />
            <Array as="points">
              <mxPoint x="600" y="150" />
              <mxPoint x="600" y="340" />
              <mxPoint x="484" y="340" />
            </Array>
          </mxGeometry>
        </mxCell>
        <mxCell id="aTJoL-72fqJcMl2lLrdI-48" value="gnd" style="rounded=0;whiteSpace=wrap;html=1;" vertex="1" parent="1">
          <mxGeometry x="240" y="140" width="30" height="20" as="geometry" />
        </mxCell>
        <mxCell id="aTJoL-72fqJcMl2lLrdI-63" style="edgeStyle=orthogonalEdgeStyle;rounded=0;orthogonalLoop=1;jettySize=auto;html=1;exitX=0;exitY=0.5;exitDx=0;exitDy=0;entryX=0.5;entryY=1;entryDx=0;entryDy=0;" edge="1" parent="1" source="aTJoL-72fqJcMl2lLrdI-54" target="aTJoL-72fqJcMl2lLrdI-32">
          <mxGeometry relative="1" as="geometry">
            <Array as="points">
              <mxPoint x="30" y="340" />
              <mxPoint x="30" y="630" />
              <mxPoint x="550" y="630" />
            </Array>
          </mxGeometry>
        </mxCell>
        <mxCell id="aTJoL-72fqJcMl2lLrdI-64" style="edgeStyle=orthogonalEdgeStyle;rounded=0;orthogonalLoop=1;jettySize=auto;html=1;exitX=0;exitY=0.5;exitDx=0;exitDy=0;entryX=0;entryY=0.5;entryDx=0;entryDy=0;" edge="1" parent="1" source="aTJoL-72fqJcMl2lLrdI-54" target="aTJoL-72fqJcMl2lLrdI-40">
          <mxGeometry relative="1" as="geometry">
            <Array as="points">
              <mxPoint x="30" y="340" />
              <mxPoint x="30" y="480" />
            </Array>
          </mxGeometry>
        </mxCell>
        <mxCell id="aTJoL-72fqJcMl2lLrdI-54" value="&lt;div&gt;vcc&lt;/div&gt;" style="rounded=0;whiteSpace=wrap;html=1;" vertex="1" parent="1">
          <mxGeometry x="70" y="330" width="30" height="20" as="geometry" />
        </mxCell>
        <mxCell id="aTJoL-72fqJcMl2lLrdI-89" style="edgeStyle=orthogonalEdgeStyle;rounded=0;orthogonalLoop=1;jettySize=auto;html=1;exitX=0;exitY=0.5;exitDx=0;exitDy=0;entryX=0;entryY=0.5;entryDx=0;entryDy=0;" edge="1" parent="1" source="aTJoL-72fqJcMl2lLrdI-56" target="aTJoL-72fqJcMl2lLrdI-36">
          <mxGeometry relative="1" as="geometry" />
        </mxCell>
        <mxCell id="aTJoL-72fqJcMl2lLrdI-56" value="gnd" style="rounded=0;whiteSpace=wrap;html=1;" vertex="1" parent="1">
          <mxGeometry x="70" y="370" width="30" height="20" as="geometry" />
        </mxCell>
        <mxCell id="aTJoL-72fqJcMl2lLrdI-57" value="" style="rounded=0;whiteSpace=wrap;html=1;" vertex="1" parent="1">
          <mxGeometry x="155" y="380" width="30" height="10" as="geometry" />
        </mxCell>
        <mxCell id="aTJoL-72fqJcMl2lLrdI-84" style="edgeStyle=orthogonalEdgeStyle;rounded=0;orthogonalLoop=1;jettySize=auto;html=1;exitX=1;exitY=0.5;exitDx=0;exitDy=0;entryX=0.5;entryY=1;entryDx=0;entryDy=0;" edge="1" parent="1" source="aTJoL-72fqJcMl2lLrdI-58" target="aTJoL-72fqJcMl2lLrdI-16">
          <mxGeometry relative="1" as="geometry">
            <Array as="points">
              <mxPoint x="380" y="170" />
              <mxPoint x="380" y="320" />
              <mxPoint x="424" y="320" />
            </Array>
          </mxGeometry>
        </mxCell>
        <mxCell id="aTJoL-72fqJcMl2lLrdI-58" value="&lt;div&gt;3.3V&lt;/div&gt;" style="rounded=0;whiteSpace=wrap;html=1;" vertex="1" parent="1">
          <mxGeometry x="240" y="160" width="30" height="20" as="geometry" />
        </mxCell>
        <mxCell id="aTJoL-72fqJcMl2lLrdI-69" style="edgeStyle=orthogonalEdgeStyle;rounded=0;orthogonalLoop=1;jettySize=auto;html=1;exitX=1;exitY=0.5;exitDx=0;exitDy=0;entryX=0.5;entryY=1;entryDx=0;entryDy=0;" edge="1" parent="1" source="aTJoL-72fqJcMl2lLrdI-68" target="aTJoL-72fqJcMl2lLrdI-18">
          <mxGeometry relative="1" as="geometry">
            <mxPoint x="280" y="170" as="sourcePoint" />
            <Array as="points">
              <mxPoint x="370" y="190" />
              <mxPoint x="370" y="330" />
              <mxPoint x="444" y="330" />
            </Array>
          </mxGeometry>
        </mxCell>
        <mxCell id="aTJoL-72fqJcMl2lLrdI-68" value="&lt;font style=&quot;font-size: 9px;&quot;&gt;gpio22&lt;/font&gt;" style="rounded=0;whiteSpace=wrap;html=1;" vertex="1" parent="1">
          <mxGeometry x="240" y="180" width="30" height="20" as="geometry" />
        </mxCell>
        <mxCell id="aTJoL-72fqJcMl2lLrdI-71" style="edgeStyle=orthogonalEdgeStyle;rounded=0;orthogonalLoop=1;jettySize=auto;html=1;exitX=1;exitY=0.5;exitDx=0;exitDy=0;entryX=0.5;entryY=1;entryDx=0;entryDy=0;" edge="1" parent="1" source="aTJoL-72fqJcMl2lLrdI-70" target="aTJoL-72fqJcMl2lLrdI-19">
          <mxGeometry relative="1" as="geometry">
            <mxPoint x="280" y="190" as="sourcePoint" />
            <Array as="points">
              <mxPoint x="360" y="210" />
              <mxPoint x="360" y="340" />
              <mxPoint x="464" y="340" />
            </Array>
          </mxGeometry>
        </mxCell>
        <mxCell id="aTJoL-72fqJcMl2lLrdI-70" value="&lt;font style=&quot;font-size: 9px;&quot;&gt;gpio21&lt;/font&gt;" style="rounded=0;whiteSpace=wrap;html=1;" vertex="1" parent="1">
          <mxGeometry x="240" y="200" width="30" height="20" as="geometry" />
        </mxCell>
        <mxCell id="aTJoL-72fqJcMl2lLrdI-83" style="edgeStyle=orthogonalEdgeStyle;rounded=0;orthogonalLoop=1;jettySize=auto;html=1;exitX=1;exitY=0.5;exitDx=0;exitDy=0;entryX=0.5;entryY=1;entryDx=0;entryDy=0;" edge="1" parent="1" source="aTJoL-72fqJcMl2lLrdI-72" target="aTJoL-72fqJcMl2lLrdI-26">
          <mxGeometry relative="1" as="geometry">
            <Array as="points">
              <mxPoint x="355" y="265" />
              <mxPoint x="355" y="580" />
              <mxPoint x="450" y="580" />
            </Array>
          </mxGeometry>
        </mxCell>
        <mxCell id="aTJoL-72fqJcMl2lLrdI-72" value="&lt;font style=&quot;font-size: 9px;&quot;&gt;gpio17&lt;/font&gt;" style="rounded=0;whiteSpace=wrap;html=1;" vertex="1" parent="1">
          <mxGeometry x="240" y="255" width="30" height="20" as="geometry" />
        </mxCell>
        <mxCell id="aTJoL-72fqJcMl2lLrdI-90" style="edgeStyle=orthogonalEdgeStyle;rounded=0;orthogonalLoop=1;jettySize=auto;html=1;exitX=0;exitY=0.5;exitDx=0;exitDy=0;entryX=0;entryY=0.5;entryDx=0;entryDy=0;" edge="1" parent="1" source="aTJoL-72fqJcMl2lLrdI-73" target="aTJoL-72fqJcMl2lLrdI-38">
          <mxGeometry relative="1" as="geometry">
            <Array as="points">
              <mxPoint x="40" y="360" />
              <mxPoint x="40" y="460" />
            </Array>
          </mxGeometry>
        </mxCell>
        <mxCell id="aTJoL-72fqJcMl2lLrdI-73" value="&lt;font style=&quot;font-size: 9px;&quot;&gt;gpio13&lt;/font&gt;" style="rounded=0;whiteSpace=wrap;html=1;" vertex="1" parent="1">
          <mxGeometry x="70" y="350" width="30" height="20" as="geometry" />
        </mxCell>
        <mxCell id="aTJoL-72fqJcMl2lLrdI-81" style="edgeStyle=orthogonalEdgeStyle;rounded=0;orthogonalLoop=1;jettySize=auto;html=1;exitX=1;exitY=0.5;exitDx=0;exitDy=0;entryX=0.5;entryY=1;entryDx=0;entryDy=0;" edge="1" parent="1" source="aTJoL-72fqJcMl2lLrdI-75" target="aTJoL-72fqJcMl2lLrdI-28">
          <mxGeometry relative="1" as="geometry">
            <Array as="points">
              <mxPoint x="340" y="305" />
              <mxPoint x="340" y="600" />
              <mxPoint x="490" y="600" />
            </Array>
          </mxGeometry>
        </mxCell>
        <mxCell id="aTJoL-72fqJcMl2lLrdI-75" value="&lt;font style=&quot;font-size: 9px;&quot;&gt;gpio16&lt;/font&gt;" style="rounded=0;whiteSpace=wrap;html=1;" vertex="1" parent="1">
          <mxGeometry x="240" y="295" width="30" height="20" as="geometry" />
        </mxCell>
        <mxCell id="aTJoL-72fqJcMl2lLrdI-82" style="edgeStyle=orthogonalEdgeStyle;rounded=0;orthogonalLoop=1;jettySize=auto;html=1;exitX=1;exitY=0.5;exitDx=0;exitDy=0;entryX=0.5;entryY=1;entryDx=0;entryDy=0;" edge="1" parent="1" source="aTJoL-72fqJcMl2lLrdI-76" target="aTJoL-72fqJcMl2lLrdI-27">
          <mxGeometry relative="1" as="geometry">
            <Array as="points">
              <mxPoint x="350" y="285" />
              <mxPoint x="350" y="590" />
              <mxPoint x="470" y="590" />
            </Array>
          </mxGeometry>
        </mxCell>
        <mxCell id="aTJoL-72fqJcMl2lLrdI-76" value="&lt;font style=&quot;font-size: 9px;&quot;&gt;gpio5&lt;/font&gt;" style="rounded=0;whiteSpace=wrap;html=1;" vertex="1" parent="1">
          <mxGeometry x="240" y="275" width="30" height="20" as="geometry" />
        </mxCell>
        <mxCell id="aTJoL-72fqJcMl2lLrdI-79" style="edgeStyle=orthogonalEdgeStyle;rounded=0;orthogonalLoop=1;jettySize=auto;html=1;exitX=1;exitY=0.5;exitDx=0;exitDy=0;entryX=0.5;entryY=1;entryDx=0;entryDy=0;" edge="1" parent="1" source="aTJoL-72fqJcMl2lLrdI-77" target="aTJoL-72fqJcMl2lLrdI-30">
          <mxGeometry relative="1" as="geometry">
            <Array as="points">
              <mxPoint x="320" y="345" />
              <mxPoint x="320" y="620" />
              <mxPoint x="530" y="620" />
            </Array>
          </mxGeometry>
        </mxCell>
        <mxCell id="aTJoL-72fqJcMl2lLrdI-77" value="&lt;font style=&quot;font-size: 9px;&quot;&gt;gpio18&lt;/font&gt;" style="rounded=0;whiteSpace=wrap;html=1;" vertex="1" parent="1">
          <mxGeometry x="240" y="335" width="30" height="20" as="geometry" />
        </mxCell>
        <mxCell id="aTJoL-72fqJcMl2lLrdI-80" style="edgeStyle=orthogonalEdgeStyle;rounded=0;orthogonalLoop=1;jettySize=auto;html=1;exitX=1;exitY=0.5;exitDx=0;exitDy=0;entryX=0.5;entryY=1;entryDx=0;entryDy=0;" edge="1" parent="1" source="aTJoL-72fqJcMl2lLrdI-78" target="aTJoL-72fqJcMl2lLrdI-29">
          <mxGeometry relative="1" as="geometry">
            <Array as="points">
              <mxPoint x="330" y="325" />
              <mxPoint x="330" y="610" />
              <mxPoint x="510" y="610" />
            </Array>
          </mxGeometry>
        </mxCell>
        <mxCell id="aTJoL-72fqJcMl2lLrdI-78" value="&lt;font style=&quot;font-size: 9px;&quot;&gt;gpio23&lt;/font&gt;" style="rounded=0;whiteSpace=wrap;html=1;" vertex="1" parent="1">
          <mxGeometry x="240" y="315" width="30" height="20" as="geometry" />
        </mxCell>
        <mxCell id="aTJoL-72fqJcMl2lLrdI-87" style="edgeStyle=orthogonalEdgeStyle;rounded=0;orthogonalLoop=1;jettySize=auto;html=1;exitX=1;exitY=0.5;exitDx=0;exitDy=0;entryX=0.5;entryY=1;entryDx=0;entryDy=0;" edge="1" parent="1" source="aTJoL-72fqJcMl2lLrdI-48" target="aTJoL-72fqJcMl2lLrdI-20">
          <mxGeometry relative="1" as="geometry">
            <Array as="points">
              <mxPoint x="600" y="150" />
              <mxPoint x="600" y="330" />
              <mxPoint x="504" y="330" />
            </Array>
          </mxGeometry>
        </mxCell>
        <mxCell id="aTJoL-72fqJcMl2lLrdI-92" value="&lt;font style=&quot;font-size: 9px;&quot;&gt;Display&lt;/font&gt;" style="text;html=1;align=center;verticalAlign=middle;resizable=0;points=[];autosize=1;strokeColor=none;fillColor=none;" vertex="1" parent="1">
          <mxGeometry x="439" y="370" width="50" height="30" as="geometry" />
        </mxCell>
        <mxCell id="aTJoL-72fqJcMl2lLrdI-93" value="&lt;font style=&quot;font-size: 9px;&quot;&gt;CO2 sensor&lt;/font&gt;" style="text;html=1;align=center;verticalAlign=middle;resizable=0;points=[];autosize=1;strokeColor=none;fillColor=none;" vertex="1" parent="1">
          <mxGeometry x="404" y="180" width="70" height="30" as="geometry" />
        </mxCell>
        <mxCell id="aTJoL-72fqJcMl2lLrdI-94" value="&lt;font style=&quot;font-size: 9px;&quot;&gt;Controller&lt;/font&gt;" style="text;html=1;align=center;verticalAlign=middle;resizable=0;points=[];autosize=1;strokeColor=none;fillColor=none;" vertex="1" parent="1">
          <mxGeometry x="95" y="110" width="60" height="30" as="geometry" />
        </mxCell>
        <mxCell id="aTJoL-72fqJcMl2lLrdI-95" value="&lt;font style=&quot;font-size: 9px;&quot;&gt;LED&lt;/font&gt;" style="text;html=1;align=center;verticalAlign=middle;resizable=0;points=[];autosize=1;strokeColor=none;fillColor=none;" vertex="1" parent="1">
          <mxGeometry x="70" y="400" width="40" height="30" as="geometry" />
        </mxCell>
      </root>
    </mxGraphModel>
  </diagram>
</mxfile>
